<?xml version="1.0" standalone="no"?>
<!DOCTYPE svg PUBLIC "-//W3C//DTD SVG 20010904//EN"
 "http://www.w3.org/TR/2001/REC-SVG-20010904/DTD/svg10.dtd">
<svg version="1.0" xmlns="http://www.w3.org/2000/svg"
 width="1024.000000pt" height="1024.000000pt" viewBox="0 0 1024.000000 1024.000000"
 preserveAspectRatio="xMidYMid meet">
<metadata>
Created by potrace 1.14, written by Peter Selinger 2001-2017
</metadata>
<g transform="translate(0.000000,1024.000000) scale(0.100000,-0.100000)"
fill="#000000" stroke="none">
<path d="M4740 8848 c-291 -24 -569 -89 -833 -194 -410 -163 -645 -305 -970
-587 -70 -62 -252 -263 -334 -372 -82 -109 -216 -316 -291 -450 -236 -423
-372 -947 -372 -1430 0 -191 24 -478 50 -598 93 -428 246 -781 503 -1166 191
-286 543 -612 899 -833 286 -177 731 -355 1011 -404 536 -93 1096 -56 1622
106 181 55 465 184 629 284 33 20 69 36 80 36 30 0 -22 33 -179 116 -71 37
-153 88 -183 112 l-53 43 -67 -40 c-135 -80 -439 -186 -693 -240 -449 -97
-850 -75 -1327 70 -429 131 -816 368 -1136 697 -264 270 -478 619 -585 952
-87 270 -118 442 -127 710 -13 341 35 659 152 1010 60 179 203 471 285 581 19
26 63 88 98 139 113 161 363 404 561 542 180 126 396 245 579 318 319 127 781
212 1056 195 600 -37 1173 -258 1620 -624 523 -429 865 -996 980 -1624 14 -76
27 -177 30 -225 3 -48 8 -106 11 -128 l5 -41 77 -7 c121 -11 223 -74 275 -171
20 -37 22 -52 19 -210 -3 -200 7 -435 18 -435 30 0 51 279 53 700 2 295 0 339
-21 475 -58 375 -185 737 -381 1083 -165 293 -280 449 -488 659 -214 218 -345
325 -577 473 -265 170 -648 334 -951 409 -276 68 -718 97 -1045 69z"/>
<path d="M4885 8084 c-11 -3 -51 -12 -90 -21 -151 -34 -310 -128 -436 -260
-108 -113 -160 -201 -206 -350 -24 -79 -27 -104 -27 -248 -1 -138 2 -171 22
-238 86 -299 329 -535 637 -618 105 -29 285 -31 399 -5 236 54 390 154 538
350 120 160 170 308 170 506 1 145 -12 225 -54 333 -87 225 -321 443 -563 524
-70 23 -99 27 -225 29 -80 1 -154 0 -165 -2z"/>
<path d="M4165 6291 c-6 -5 -67 -42 -137 -83 -181 -104 -295 -187 -406 -297
-302 -299 -471 -614 -531 -986 -18 -108 -31 -365 -21 -385 25 -46 206 -77 850
-145 418 -45 1014 -54 1490 -25 243 16 250 17 250 48 0 15 -7 52 -15 82 -37
139 -46 292 -43 700 l3 395 26 55 c35 73 89 133 142 158 23 11 110 34 192 52
82 17 185 43 229 57 45 13 93 27 109 30 15 3 27 9 27 14 0 14 -94 85 -240 182
-150 99 -268 163 -281 150 -11 -11 -94 -166 -125 -232 -14 -30 -64 -133 -111
-230 -47 -97 -118 -243 -158 -326 -40 -82 -95 -188 -121 -235 -26 -47 -87
-165 -136 -263 -90 -182 -123 -237 -143 -237 -11 0 -191 321 -270 480 -15 30
-53 100 -85 155 -32 55 -106 195 -165 310 -59 116 -135 262 -168 325 -34 63
-77 146 -97 184 -36 71 -48 84 -65 67z"/>
<path d="M5235 6122 c-56 -17 -349 -23 -442 -9 l-53 8 0 -90 c0 -115 21 -174
102 -283 l60 -81 -35 -116 c-52 -170 -52 -159 -6 -229 22 -34 62 -104 90 -155
27 -50 54 -96 58 -100 8 -8 71 72 71 89 0 12 80 145 113 187 l29 38 -56 129
c-31 71 -56 136 -56 144 0 8 34 55 77 103 99 115 115 151 121 281 5 114 9 109
-73 84z"/>
<path d="M6790 5994 c-87 -55 -276 -148 -390 -192 -240 -94 -290 -111 -400
-137 -182 -41 -187 -43 -216 -78 l-27 -32 6 -385 c7 -411 15 -513 52 -655 29
-110 110 -302 173 -410 122 -209 314 -423 477 -530 105 -70 390 -215 422 -215
63 0 206 65 338 153 272 182 609 650 689 957 44 166 54 295 59 708 l4 383 -21
15 c-12 7 -128 49 -257 92 -347 117 -515 191 -733 325 -74 46 -104 46 -176 1z
m309 -306 c225 -128 395 -199 582 -243 l76 -18 7 -206 c11 -337 -14 -552 -91
-781 -53 -160 -124 -295 -216 -416 -98 -130 -185 -215 -303 -299 -86 -62 -240
-145 -267 -145 -26 0 -260 129 -311 172 -222 185 -403 421 -487 638 -75 190
-96 342 -106 767 l-6 281 39 11 c21 5 59 15 83 21 154 40 512 200 690 307 l83
51 60 -40 c33 -22 108 -67 167 -100z"/>
<path d="M6780 5713 c-58 -35 -114 -68 -125 -73 -11 -4 -56 -25 -100 -45 -148
-69 -233 -103 -312 -125 -43 -12 -102 -31 -132 -42 l-53 -20 6 -322 c4 -176 9
-341 12 -366 23 -183 109 -374 254 -565 151 -198 293 -324 476 -420 l91 -48
64 43 c278 188 431 346 559 578 66 120 97 200 136 357 22 88 27 136 36 392 6
161 8 304 4 317 -5 21 -18 29 -75 46 -37 11 -74 20 -81 20 -22 0 -190 70 -325
135 -125 61 -275 151 -289 174 -21 34 -41 29 -146 -36z m195 -279 c73 -18 132
-52 207 -116 92 -79 128 -178 128 -354 l0 -95 -87 3 -88 3 3 73 c7 138 -32
224 -126 275 -125 68 -272 33 -338 -81 -23 -39 -29 -65 -36 -152 -4 -58 -10
-111 -13 -117 -5 -16 -132 -18 -155 -3 -12 7 -15 30 -14 112 3 160 44 262 141
348 76 68 192 115 288 119 17 1 58 -6 90 -15z m-32 -689 c36 -7 103 -69 128
-116 25 -50 34 -134 20 -187 -13 -46 -61 -107 -92 -117 -24 -8 -24 -32 1 -170
11 -60 20 -115 20 -122 0 -18 -256 -19 -262 0 -4 10 14 134 37 264 5 29 2 33
-30 49 -74 35 -105 108 -91 211 12 93 90 178 173 193 39 6 46 6 96 -5z"/>
<path d="M6829 4569 c-37 -40 -37 -73 0 -110 57 -57 131 -23 131 61 0 77 -78
106 -131 49z"/>
</g>
</svg>
